<svg version="1.2" xmlns="http://www.w3.org/2000/svg" viewBox="0 0 359 50" width="359" height="50">
	<title>Coolmath_Games_2018-svg</title>
	<style>
		.s0 { opacity: .1;fill: #000000 } 
		.s1 { fill: #ffffff } 
	</style>
	<g id="Layer">
		<path id="Layer" fill-rule="evenodd" class="s0" d="m19.1 39.8q-2.4 0-4.5-0.8-3-1.1-5.1-3.4c-1.4-1.6-2.4-3.5-3-5.7-0.6-2.2-0.7-4.7-0.2-7.2 0.3-2.5 1.1-5 2.2-7.3 1.1-2.3 2.4-4.4 4.1-6.2 1.6-1.8 3.5-3.4 5.6-4.6 2.1-1.2 4.4-2 6.9-2.3q0 0 0 0 0.7 0 1.5 0 0.6 0 1.3 0 1.5 0.1 3 0.6 1.6 0.6 2.8 1.6 1.4 1 2.3 2.7 0.9 1.6 1 3.9 0.1 2.1-0.6 4.9c-0.2 0.6-0.7 1.1-1.4 1.2l-8.3 1.2q-0.1 0-0.2 0c-0.4 0-0.8-0.2-1.2-0.5-0.3-0.4-0.5-1-0.4-1.6q0.2-0.9 0.2-1.7c0-0.5 0-0.8-0.1-1q0 0 0 0c0 0 0 0 0 0q-1.2 0.1-2 0.9-1.1 0.9-1.9 2.1-0.8 1.3-1.4 2.8-0.6 1.4-0.8 2.5-0.4 1.5-0.5 2.9-0.1 1.2 0.2 2.2 0.2 0.7 0.6 1 0.3 0.3 1 0.3 0.2 0 0.4 0 0.9-0.1 1.5-0.4 0.7-0.3 1.2-0.7 0.5-0.5 0.8-1 0.3-0.6 0.5-1.3c0.2-0.7 0.9-1.2 1.5-1.2q0.1 0 0.1 0l9.4 0.6q0.2 0 0.4 0 0-1 0.2-2 0.5-3 1.7-5.7 1.3-2.7 3.3-4.7 1.9-2.1 4.5-3.3 2.6-1.2 5.6-1.3 0 0 0 0 0.1 0 0.2 0 2.6 0 4.8 1.2 2.3 1.2 3.8 3.3 1.4 2.2 2 5 0.1 0.3 0.1 0.6 0.2-0.4 0.4-0.7 1.2-2.7 3.1-4.7 2-2.1 4.5-3.2 2.6-1.2 5.5-1.3 0 0 0 0 0.1 0 0.2 0 2.6 0 4.8 1.1 2.2 1.2 3.7 3.4 1.5 2.1 2 4.8 0.5 2 0.3 4.1l5.5-16.6c0.2-0.7 0.8-1.1 1.4-1.2l9.1-0.7q0 0 0.1 0c0.5 0 1 0.3 1.3 0.7 0.3 0.5 0.4 1.1 0.2 1.6l-9.6 30.6c-0.2 0.6-0.7 1.1-1.3 1.2l-9.7 1.4q-0.2 0-0.3 0c-0.4 0-0.9-0.2-1.2-0.6-0.4-0.5-0.5-1.1-0.3-1.7l1.8-5.6q-1 1.7-2.4 3.1-2 2-4.5 3.2-2.5 1.2-5.1 1.2-0.1 0-0.2 0-2.7 0-4.8-1.2-2.3-1.2-3.7-3.3-1.5-2.1-2.1-4.9-0.1-0.3-0.1-0.6-0.2 0.5-0.5 1-1.4 2.7-3.4 4.7-2 2-4.5 3.2-2.6 1.3-5.3 1.3 0 0-0.1 0-2.7 0-4.9-1.2-2.2-1.2-3.7-3.4-1.4-1.9-2-4.5-0.7 1.8-1.7 3.3-1.6 2.3-3.7 3.9-2.1 1.6-4.6 2.6-2.5 0.9-5.1 1.3-1.1 0.1-2.2 0.1zm28.3-12.5q0.2 0 0.6-0.2 0.6-0.4 1.1-1.1 0.6-0.8 1.1-1.8 0.5-1 0.7-2.1 0.2-0.9 0.4-2.2 0.2-1 0.1-2 0-0.7-0.2-1.1-0.1 0-0.3 0-0.3 0-0.6 0.3-0.7 0.5-1.2 1.4-0.7 0.9-1.1 2-0.4 1.2-0.6 2.2 0 0.1 0 0.1-0.1 0.7-0.3 1.8-0.1 0.9 0 1.7 0 0.6 0.2 1 0 0 0.1 0 0 0 0 0zm24.5-0.1q0.2 0 0.5-0.2 0.6-0.4 1.2-1.1 0.6-0.7 1.1-1.7 0.4-1 0.7-2.1 0.1-0.9 0.3-2.1 0.2-1.1 0.1-2 0-0.7-0.2-1.1 0 0-0.2 0-0.3 0-0.7 0.3-0.6 0.5-1.1 1.3-0.6 0.9-1.1 2.1-0.4 1.1-0.6 2.1 0 0.1 0 0.1-0.1 0.7-0.2 1.7-0.2 0.9-0.1 1.7 0 0.6 0.2 1 0 0 0.1 0 0 0 0 0zm155.5 12.6q-2.4 0-4.5-0.8-3-1.1-5.1-3.4-2.1-2.4-3-5.7c-0.6-2.2-0.6-4.7-0.2-7.2 0.4-2.5 1.1-5 2.2-7.3 1.1-2.2 2.4-4.3 4.1-6.1 1.6-1.9 3.5-3.4 5.6-4.6 2.1-1.2 4.4-2 6.9-2.3q0 0 0 0 0.7-0.1 1.5-0.1 0.6 0 1.3 0.1 1.5 0.1 3 0.6 1.5 0.6 2.8 1.5 1.4 1.1 2.2 2.7 0.9 1.7 1 3.9 0.1 2.1-0.6 4.9c-0.1 0.6-0.6 1-1.1 1.2l1-0.1q0 0 0.1 0c0.4 0 0.9 0.3 1.2 0.7 0.3 0.4 0.5 1 0.3 1.5q-0.3 1.2-0.6 2.6 1.6-2.2 3.8-3.5-0.2-0.2-0.3-0.4c-0.5-0.5-0.6-1.2-0.3-1.9l3-6.9c0.2-0.4 0.6-0.8 1-0.9q1.2-0.5 2.5-0.7 1.2-0.2 2.7-0.3 0.2 0 0.3 0 1.4 0 3 0.3 0 0 0.1 0 1 0.3 2.3 0.7 1.5 0.5 2.8 1.7 1.3 1.1 2.1 3.1c0.6 1.3 0.9 2.9 0.9 4.8 0 0.4-0.1 0.9-0.3 1.7v0.1q-0.2 0.9-0.5 2.1l-0.2 0.8q-0.3 1-0.7 2.2-0.3 1.1-0.6 2.3l-0.7 2c-0.6 2-1.3 4.2-2 6.6-0.2 0.5-0.6 1-1.2 1.1l-8.8 2.2q-0.2 0.1-0.4 0.1c-0.5 0-0.9-0.3-1.3-0.7-0.3-0.5-0.4-1.1-0.2-1.7q-0.8 0.1-1.6 0.1-1.4 0-2.7-0.4-1.4-0.3-2.6-1.1-1.2-0.9-1.9-2.3-0.7-1.4-0.7-3.3 0 0 0 0 0-0.2 0-0.3-0.5 1-1.1 2-1.2 2.1-2.9 3.8-1.8 1.7-4.1 2.8-2.3 1.2-5.3 1.6-1.1 0.2-2.2 0.2zm28-12.6q0.1 0.1 0.2 0.1c0.1 0 0.1-0.3 0.1-0.3q0.3-0.8 0.6-1.7c-0.2 0.2-0.7 0.6-0.9 1.8q0 0.1 0 0.1zm-22.7-13q-0.1 0-0.2 0 0 0 0 0-1.2 0.2-2.3 0.9-1.1 0.8-2 2-0.9 1.2-1.6 2.7-0.6 1.4-0.8 2.9-0.2 1.4-0.1 2.6 0 1 0.4 1.7 0.1 0.1 0.2 0.2-0.1-0.3 0-0.6l1.4-7.4c0.2-0.8 0.8-1.3 1.6-1.4l4.1-0.2c-0.2-0.3-0.3-0.8-0.2-1.2 0.2-1.4 0-1.9-0.1-2 0-0.1-0.1-0.2-0.4-0.2zm-89.3 25.2c-0.5 0-0.9-0.2-1.2-0.6-0.4-0.5-0.5-1.2-0.3-1.8q-0.8 0.1-1.7 0.1-1.4 0-2.7-0.4-1.4-0.3-2.6-1.1-1.2-0.9-2-2.3-0.5-1-0.6-2.2-0.8 2.2-1.7 4.5c-0.2 0.6-0.7 1-1.4 1l-8.2 0.6q-0.1 0-0.1 0c-0.5 0-1-0.3-1.3-0.7-0.4-0.5-0.4-1.1-0.3-1.7l0.3-0.8c0.9-2.5 1.6-4.9 2.2-6.9q0.4-1.4 0.7-2.8 0.1-0.6 0.2-1.2-0.5 1.8-1.2 3.8l-0.2 0.5q-0.9 2.4-1.8 5c-0.2 0.5-0.6 0.9-1 1.1-1.1 0.3-2.3 0.6-3.8 0.8q-0.8 0.1-1.7 0.1-1.7 0-3.6-0.3c-0.4-0.1-0.9-0.4-1.1-0.9-0.3-0.5-0.3-1-0.1-1.5q1.2-3.5 2-6.2 0.3-1.1 0.6-2.1-0.1 0.1-0.1 0.1l-0.2 0.7q-0.2 0.4-0.4 0.9-0.6 1.5-1 2.8l-0.8 2.3q-0.1 0.4-0.3 0.8l-0.2 0.7q-0.3 1-0.6 1.8c-0.2 0.7-0.7 1.2-1.4 1.2l-7.6 0.8q-0.1 0-0.2 0c-0.5 0-0.9-0.2-1.2-0.6-0.4-0.5-0.5-1.1-0.3-1.6l0.5-2q0.4-1.4 0.7-2.7 0 0 0 0 0.3-0.9 0.5-1.8l0.3-1.1 0.3-1.1q0.1-0.5 0.2-0.9l0.1-0.4q0.1-0.5 0.2-0.8 0.5-1.7 1.4-4.3l0.2-0.5q1-2.8 2.6-7c0.2-0.4 0.5-0.8 0.9-1 0.4-0.1 0.9-0.3 1.7-0.5h0.1q1.1-0.3 2.4-0.5 1-0.2 2-0.3l0.3-0.1q1-0.1 1.6-0.1 0.2 0 0.3 0c0.5 0 1 0.3 1.2 0.8q0.3 0.4 0.3 0.8 0.9-0.3 2-0.6 1.2-0.2 2.4-0.2 0.3 0 0.6 0 0 0 0.1 0 1.2 0.1 2.1 0.8 0.8 0.6 1.3 1.5 0.3 0.4 0.5 0.8 0.1 0 0.2-0.1 1.2-0.7 2.4-1.3 1.3-0.7 2.5-1.1 1.2-0.5 2.3-0.5c0 0 0 0 0 0h0.1c1.9 0.1 3 1 3.5 1.8q1 1.5 1.2 3.6 0.2 2-0.2 4.3-0.2 1.6-0.5 3.1 1.6-2.2 3.9-3.5-0.2-0.2-0.4-0.4c-0.4-0.5-0.5-1.3-0.2-1.9l3.1-7.1c0.1-0.4 0.5-0.7 0.9-0.9q1.2-0.4 2.6-0.7 1.2-0.2 2.7-0.3 0.2 0 0.3 0 1.5 0 3.1 0.3 0 0.1 0 0.1 1.1 0.2 2.4 0.7 1.5 0.5 2.8 1.6 1.3 1.2 2.2 3.2 0.5 1.1 0.7 2.5l0.9-3.2c0.2-0.7 0.7-1.2 1.4-1.2l0.3-0.1q0.7 0 1.8-0.1l2.1-0.2q0.1-0.3 0.2-0.7l0.3-0.9 0.9-2.5 0.2-0.6q0.1-0.4 0.2-0.7c0.2-0.5 0.6-0.9 1.1-1q0.9-0.3 2.4-0.6 1.4-0.2 2.8-0.4 1.3-0.2 2.4-0.3l0.7-0.1q1-0.2 1.7-0.3 0.1 0 0.3 0c0.4 0 0.9 0.2 1.2 0.6 0.4 0.5 0.5 1.2 0.3 1.7l-0.2 0.7q-0.2 0.3-0.3 0.6l-0.2 0.8q-0.2 0.6-0.4 1.2l-0.3 0.7q-0.1 0.3-0.3 0.7l-0.2 0.5h0.6q0.7-0.1 1.3-0.1h0.2q0.7-0.1 1.2-0.1c0.5 0 0.9 0.2 1.2 0.6 0.3 0.3 0.4 0.7 0.5 1.1q0.1-0.5 0.2-0.9 0.6-1.8 1.2-3.5 0.5-1.7 1.1-3c0.2-0.5 0.5-0.9 1-1 0.3-0.1 0.7-0.2 1.2-0.3l0.4-0.1q0.6-0.1 1.3-0.2 0.9-0.2 1.9-0.3l0.8-0.1q0.4 0 0.8 0l0.4-0.1q0.8 0 1.4-0.1h0.2q0.4 0 0.7 0 0.4 0 0.6 0c0.5 0.1 1 0.4 1.2 0.8 0.3 0.5 0.3 1 0.2 1.6l-2.4 7.3q0.9-0.2 2.1-0.4 0.9-0.1 1.8-0.1 0.6 0 1.3 0.1 0 0 0 0 2.7 0.2 4 1.9 1.3 1.5 1.5 3.9 0.1 2.1-0.4 4.7-0.5 2.4-1.4 5-0.8 2.6-1.8 5.3-0.9 2.7-1.8 5.2c-0.2 0.5-0.6 0.9-1.1 1-1.1 0.4-2.4 0.6-4.1 0.7q-0.6 0.1-1.3 0.1-2 0-4.5-0.5c-0.5-0.1-0.9-0.4-1.2-0.9-0.2-0.4-0.2-1 0-1.5 1.2-3 2.2-5.8 2.9-8.2l0.2-0.4q0.5-1.6 0.9-3.1 0.4-1.5 0.6-2.7 0 0 0 0-0.3 0.4-0.5 0.9-0.4 0.7-0.6 1.2-0.6 1.7-1.2 3.4l-0.2 0.6q-0.3 1.2-0.6 2.2l-0.1 0.3q-0.5 1.6-0.9 3.2c-0.2 0.7-0.7 1.2-1.4 1.3l-8.8 0.5q0 0 0 0c-0.5 0-1-0.2-1.3-0.6-0.3-0.4-0.4-1-0.3-1.6l0.2-0.9q0.6-2.2 1.1-4.1l0.3-1.3 0.2-0.7q0.2-0.7 0.3-1.3l0.3-1.2q0.1-0.3 0.2-0.6l0.1-0.6q0.2-0.6 0.2-0.7 0-0.1 0-0.2l0.3-0.8c0 0 0.3-1.3 0.3-1.3-0.2 0.3-0.6 0.6-1 0.6l-5.2 0.6q-0.7 1.9-1.2 3.5-0.6 1.7-0.9 3.3v0.3q0.2 0 0.3 0.1 0.3 0 0.6 0 0.4 0 0.9-0.1 1-0.1 1.8-0.3 0.2-0.1 0.3-0.1c0.5 0 1 0.2 1.3 0.6 0.4 0.5 0.5 1.2 0.3 1.8l-2.6 7.2c-0.2 0.6-0.6 1-1.1 1.1q-1.5 0.4-3 0.7-1.6 0.2-3.2 0.3-0.1 0-0.3 0-1.4 0-2.8-0.3-1.6-0.3-2.9-1.1-1.3-1-2.1-2.5-0.7-1.5-0.7-3.5c0 0 0-0.2 0-0.2q0-1.3 0.4-2.9 0.4-1.5 0.9-3.1 0.4-1.2 0.8-2.4c0 0 0.3-0.9 0.3-0.9l-2.3 0.3q-0.2 0.1-0.3 0.1-0.5 0-0.9-0.4l-0.1 0.4q-0.3 1.1-0.6 2.3-0.4 1.2-0.7 2.3l-0.7 2.1c-0.6 2.1-1.3 4.3-2 6.7-0.2 0.5-0.7 1-1.2 1.1l-9 2.3q-0.2 0-0.4 0zm1.4-12q0.1 0.1 0.3 0.1c0 0 0.1-0.3 0.1-0.3q0.2-0.6 0.4-1.2l0.2-0.7q-0.7 0.5-1 2 0 0.1 0 0.1zm166.9 11.1q-2.6 0-4.3-0.9-1.9-1-3.1-2.8-1-1.7-1.4-3.9-0.4-2-0.4-4.1-1.2 4-2.9 8.6c-0.3 0.6-0.8 1-1.4 1.1l-8.3 0.5q0 0-0.1 0c-0.5 0-1-0.3-1.3-0.7-0.3-0.5-0.4-1.1-0.2-1.7l0.3-0.7c0.8-2.6 1.6-4.9 2.1-6.9q0.4-1.4 0.7-2.8 0.1-0.5 0.2-1-0.5 1.7-1.2 3.6l-0.1 0.4q-1 2.5-1.8 5.1c-0.2 0.5-0.6 0.9-1 1-1.1 0.4-2.3 0.6-3.8 0.8q-0.8 0.1-1.7 0.1-1.6 0-3.5-0.3c-0.5-0.1-0.9-0.4-1.2-0.8-0.2-0.5-0.3-1.1-0.1-1.6q1.3-3.4 2.1-6.1 0.2-1 0.5-1.9c0 0-0.3 0.6-0.3 0.6q-0.2 0.5-0.3 0.9-0.6 1.5-1.1 2.8l-0.9 2.6-0.1 0.4-0.2 0.8q-0.3 0.9-0.6 1.8c-0.2 0.6-0.7 1.1-1.4 1.2l-7.6 0.7q-0.1 0-0.1 0c-0.5 0-1-0.2-1.3-0.6-0.3-0.4-0.4-1-0.3-1.6l0.5-1.9q0.4-1.4 0.7-2.7 0 0 0 0 0.3-0.9 0.5-1.8l0.3-1.1 0.3-1.1q0.1-0.5 0.2-0.9l0.1-0.4q0.2-0.5 0.2-0.8c0.4-1.3 0.9-2.8 1.6-4.7l0.8-2.4q0.8-2.1 1.8-4.6c0.1-0.4 0.5-0.8 0.9-1 0.4-0.1 0.9-0.3 1.6-0.5h0.2q1.1-0.3 2.3-0.5 1.1-0.2 2-0.3l0.4-0.1q1-0.1 1.5-0.1 0.2 0 0.4 0c0.4 0 0.9 0.3 1.2 0.8q0.2 0.3 0.2 0.8 1-0.3 2-0.6 1.2-0.2 2.4-0.2 0.3 0 0.6 0 0 0 0 0 1.3 0.1 2.2 0.8 0.8 0.6 1.3 1.4 0.2 0.5 0.4 0.9 0.1-0.1 0.3-0.1 1.2-0.7 2.4-1.4 1.2-0.6 2.4-1 1.2-0.5 2.3-0.5c0 0 0 0 0 0h0.1c1.9 0 2.9 1 3.5 1.8q0.9 1.5 1.2 3.6 0.1 1.9-0.2 4.3 0 0 0 0.1 1-2.1 2.4-4.2l0.2-0.3q1.4-2 3.6-3.7 2.1-1.6 4.6-2.4 1.9-0.7 3.9-0.7 0.6 0 1.3 0.1 2.7 0.3 5 2.2 1.5 1.2 2.2 3.3 0.6 1.9 0.8 4.1 0.1 2.1-0.2 4.1-0.3 2.1-1.1 3.6c-0.3 0.5-0.8 0.8-1.4 0.8q-1.2 0-2.6 0.1l1.7 0.2c0.6 0 1 0.4 1.3 0.9 0.2 0.4 0.3 1 0.1 1.6q-0.9 1.9-2.1 3.7-1.3 1.8-3 3.2-1.7 1.3-4 2.2-2.2 0.8-5 0.8-0.1 0-0.2 0zm-31.9-15q0 0 0 0 0 0 0 0zm33.1 4.2c0.3 0 0.4-0.1 0.4-0.1q0 0 0.1-0.1 0.2-0.2 0.4-0.5c0 0 0.2-0.3 0.2-0.3q-0.6 0-1.2 0 0 0.3 0 0.6 0 0.2 0.1 0.4 0 0 0 0zm21 10.2q-2.2 0-3.8-0.7-1.6-0.8-2.7-2-1-1.3-1.4-2.8-0.4-1.5-0.3-2.8c0-0.5 0.2-0.9 0.5-1.2q0.5-0.4 1.3-0.9l1.9-1.2q0.6-0.3 1.1-0.7l0.6-0.3q0.6-0.4 0.9-0.6-0.1-0.1-0.2-0.1-1-0.6-1.8-1.3c-0.7-0.6-1.1-1.5-1.2-2.4q-0.2-1.8 0.3-3.5 0.5-1.5 1.5-2.8 0.9-1.2 2-2.2 1.2-1 2.3-1.7 1-0.7 2-1.2l0.4-0.2q0.7-0.3 1.2-0.5 0 0 0 0 2-0.9 4.2-1.1 0.7 0 1.3 0 1.6 0 3 0.3 2.1 0.5 3.7 1.8 1.8 1.5 2.3 3.8c0.1 0.8-0.2 1.6-0.9 1.9l-6.2 3.6q-0.2 0.1-0.4 0.2 1 0.4 1.9 1.1 0.8 0.7 1.4 1.7 0.6 1 0.9 2.1 0.2 1.2 0 2.4-0.3 2-1.5 4-1.1 2-3 3.6-2 1.6-4.7 2.6-2.7 1-6.3 1.1-0.2 0-0.3 0zm3.7-10.7q0 0 0.1 0 0.1 0 0.4 0 0.3-0.1 0.5-0.2 0 0 0-0.1-0.8-0.3-1.7-0.6l-1.8-0.6q0.1 0.4 0.3 0.7 0.1 0.2 0.3 0.4 0.2 0.1 0.4 0.2 0.6 0.1 1.5 0.2zm4.3-9.4q0.3 0.2 0.7 0.3 0.7 0.3 1.3 0.5-0.4-0.3-0.8-0.6-0.3-0.2-0.8-0.2-0.1 0-0.2 0-0.1 0-0.2 0z"/>
		<path id="Layer" fill-rule="evenodd" class="s1" d="m200.4 13q2.1 0.2 3 1.3 0.9 1.2 1 3 0.2 1.8-0.3 4.1-0.5 2.3-1.3 4.8-0.8 2.6-1.8 5.3-1 2.7-1.8 5.2-1.5 0.4-3.8 0.6-2.4 0.2-5.4-0.4 1.8-4.6 3-8.4l0.1-0.3q0.5-1.6 0.9-3.2 0.5-1.6 0.7-2.8 0.2-1.3 0.2-2.1-0.1-0.8-0.5-0.8-0.8-0.1-1.4 0.3-0.5 0.4-1 1-0.5 0.6-0.9 1.3-0.3 0.7-0.6 1.4-0.7 1.7-1.2 3.4l-0.2 0.7q-0.4 1.2-0.7 2.2l-0.1 0.3q-0.4 1.7-0.8 3.2l-8.8 0.6 0.3-1q0.5-2.1 1-4l0.4-1.4 0.1-0.6q0.2-0.7 0.4-1.3l0.3-1.3q0.1-0.3 0.1-0.5l0.2-0.6q0.1-0.6 0.2-0.9l0.2-0.8 0.3-1.2q0.3-0.9 0.6-2l0.1-0.3q0.4-1.3 0.9-2.8l0.1-0.3q0.5-1.7 1.1-3.5 0.5-1.7 1.1-3.3 0.5-1.7 1.1-3.1 0.3-0.1 1-0.2l0.3-0.1q0.6-0.1 1.3-0.2 0.9-0.1 1.9-0.2l0.8-0.1q0.3 0 0.7-0.1h0.4q0.8-0.1 1.4-0.1h0.2q0.7-0.1 1 0l-3.4 10.4q1.2-0.4 2.4-0.7 1.1-0.3 2.5-0.4 1.3-0.2 2.7-0.1zm-164.9 13q-0.7 2.8-2.1 4.9-1.5 2.1-3.4 3.5-1.9 1.5-4.2 2.3-2.3 0.9-4.7 1.2-3.3 0.5-5.9-0.5-2.7-1-4.5-3-1.9-2.1-2.6-5-0.8-3-0.3-6.5 0.6-3.5 2.1-6.7 1.6-3.2 3.8-5.8 2.3-2.6 5.2-4.3 3-1.6 6.4-2 1.1-0.2 2.5-0.1 1.3 0.1 2.6 0.6 1.3 0.5 2.4 1.3 1.1 0.8 1.8 2.1 0.7 1.3 0.8 3.2 0.1 1.8-0.6 4.3l-8.3 1.2q0.2-1.1 0.2-2 0.1-1-0.1-1.6-0.2-0.7-0.7-1-0.3-0.3-1-0.3l-0.1 0.1q-1.6 0.2-2.9 1.2-1.2 1.1-2.1 2.5-1 1.5-1.6 3.1-0.6 1.5-0.9 2.7-0.4 1.7-0.5 3.3-0.1 1.5 0.2 2.8 0.4 1.2 1.2 1.9 0.9 0.7 2.5 0.6 1.2-0.1 2.1-0.5 0.9-0.4 1.5-1 0.7-0.6 1.1-1.4 0.5-0.8 0.7-1.6zm20.4 5.9q-1.8 1.9-4.1 2.9-2.2 1.1-4.6 1.1-2.4 0.1-4.3-1-1.9-1-3.2-2.8-1.2-1.8-1.8-4.3-0.5-2.4 0-5.2 0.4-2.8 1.6-5.2 1.1-2.5 2.9-4.3 1.7-1.8 4-2.9 2.3-1.1 5-1.1 2.3-0.1 4.2 0.9 2 1.1 3.2 2.9 1.3 1.8 1.8 4.3 0.5 2.4 0.1 5.2-0.5 2.7-1.7 5.2-1.3 2.5-3.1 4.3zm-2.8-14.1q0-1.1-0.5-1.9-0.5-0.8-1.6-0.9-0.8 0-1.6 0.7-0.9 0.6-1.6 1.7-0.7 1.1-1.2 2.4-0.5 1.4-0.7 2.6-0.2 0.8-0.3 1.9-0.1 1.1-0.1 2.1 0.1 1 0.5 1.8 0.4 0.7 1.2 0.8 0.8 0.1 1.6-0.4 0.9-0.5 1.6-1.5 0.8-0.9 1.3-2.1 0.6-1.2 0.9-2.6 0.2-0.9 0.4-2.2 0.2-1.2 0.1-2.4zm31.9 4.6q-0.4 2.7-1.7 5.1-1.2 2.5-3 4.3-1.8 1.8-4.1 2.9-2.2 1-4.5 1-2.3 0.1-4.2-0.9-1.9-1.1-3.2-2.9-1.2-1.7-1.7-4.1-0.6-2.5-0.1-5.2 0.4-2.7 1.6-5.1 1.1-2.5 2.8-4.3 1.8-1.8 4-2.8 2.3-1.1 4.9-1.2 2.3 0 4.2 1 1.9 1 3.2 2.8 1.2 1.8 1.7 4.2 0.6 2.4 0.1 5.2zm-8 0q0.2-0.9 0.4-2.1 0.2-1.3 0.1-2.4 0-1.2-0.5-1.9-0.4-0.8-1.5-0.9-0.9 0-1.7 0.7-0.8 0.6-1.5 1.7-0.7 1.1-1.2 2.4-0.5 1.3-0.7 2.5-0.2 0.8-0.3 1.9-0.1 1.1 0 2.1 0 1 0.4 1.7 0.4 0.7 1.2 0.8 0.8 0.1 1.6-0.4 0.8-0.5 1.6-1.4 0.7-0.9 1.3-2.1 0.5-1.2 0.8-2.6zm25.9-18.2l-9.6 30.5-9.8 1.5 10.3-31.3zm30.2 7.8q0.7 1 0.9 2.7 0.1 1.7-0.2 3.9-0.3 2.1-0.8 4.4-1.2 5.3-3.7 11.9l-8.3 0.5 0.2-0.8q1.4-3.9 2.2-7 0.4-1.5 0.8-2.9 0.3-1.4 0.4-2.5 0.2-1.1 0.1-1.8-0.1-0.7-0.5-0.7-1-0.1-1.5 0.5-0.6 0.6-1.2 1.8-0.6 2-1.5 4.2l-0.1 0.5q-0.9 2.5-1.8 5.1-1.4 0.5-3.5 0.7-2.1 0.3-4.8-0.2 1.3-3.5 2.1-6.3 0.3-1.2 0.6-2.3 0.3-1.2 0.3-2.1 0.1-0.9 0-1.5-0.1-0.5-0.5-0.6-0.6 0-1.2 0.5-0.5 0.5-1 1.2-0.4 0.8-0.8 1.7l-0.2 0.6q-0.2 0.5-0.4 0.9-0.6 1.5-1 2.9l-0.8 2.3q-0.2 0.4-0.3 0.8l-0.2 0.8q-0.3 0.9-0.6 1.8l-7.7 0.7 0.5-1.9q0.4-1.4 0.8-2.7 0.2-0.9 0.5-1.8l0.2-1.1 0.3-1.2q0.2-0.4 0.3-0.8l0.1-0.5q0.1-0.4 0.2-0.7 0.4-1.7 1.3-4.2l0.2-0.5q1-2.8 2.6-6.9 0.4-0.2 1.4-0.5h0.2q1-0.3 2.2-0.5 1.1-0.2 2-0.3h0.4q1.1-0.2 1.5-0.2l-0.8 2.8q1.2-0.6 2.4-1.1 1.1-0.4 2.3-0.7 1.3-0.3 2.6-0.2 0.9 0.1 1.4 0.5 0.5 0.4 0.9 1 0.3 0.5 0.5 1.2 0.1 0.7 0.3 1.4 0.8-0.6 2-1.3 1.1-0.7 2.3-1.3 1.2-0.6 2.3-1 1-0.4 1.8-0.4h0.1q1.5 0.1 2.2 1.2zm24.2 7.3q-0.2 1-0.6 2.3l-0.1 0.5q-0.3 1.1-0.7 2.3-0.3 1.1-0.7 2.3l-0.6 2.1q-0.9 3-2.1 6.6l-9 2.3q0.3-0.6 0.5-1.2 0.2-0.4 0.3-0.9l0.6-1.2q-1 0.5-2.1 0.7-1.2 0.2-2.4 0.2-1.3 0-2.4-0.3-1.2-0.3-2.1-0.9-0.9-0.6-1.4-1.7-0.6-1-0.6-2.5 0.1-3.5 1.8-6.2 1.7-2.7 4.5-4.2 1.2-0.6 2.5-1 1.3-0.4 2.4-0.5 1.2-0.1 2.2-0.1 1 0.1 1.8 0.2 0-0.3 0.1-0.7 0.1-0.4 0-0.7 0-0.3-0.2-0.6-0.2-0.2-0.6-0.5-1-0.4-2.5-0.3-1.5 0.1-2.9 0.5-1.6 0.4-3.4 1l3.1-7q1.1-0.4 2.3-0.7 1.1-0.2 2.5-0.2 1.4-0.1 3.1 0.3 1 0.2 2.2 0.6 1.2 0.4 2.3 1.4 1 0.9 1.7 2.5 0.7 1.6 0.7 4.2 0 0.4-0.2 1.3zm-14 7.6q-0.1 0.8 0.1 1.3 0.3 0.5 0.7 0.7 0.5 0.3 1.1 0.3 0.6 0.1 1.2 0v-0.2q0.2-0.4 0.4-1.1l0.1-0.2q0.2-0.6 0.4-1.2l0.4-1.1q0.1-0.4 0.3-0.9l0.3-1q0-0.1 0-0.1 0.1 0 0.1-0.1-1.8-0.4-3.2 0.5-1.4 0.9-1.9 3.1zm37.4-11.9l-0.2 0.9q-0.2 0.4-0.3 0.7l-0.2 0.7q-0.2 0.7-0.4 1.1l-6.2 0.7-0.3 1q-0.7 1.9-1.2 3.5-0.7 1.8-1 3.6v0.3q-0.2 1 0.4 1.5 0.5 0.5 1.4 0.6 0.9 0.1 1.9-0.1 1-0.1 1.9-0.3l-2.6 7.2q-1.3 0.4-2.8 0.6-1.5 0.3-3 0.3-1.5 0-2.8-0.2-1.3-0.3-2.3-0.9-0.9-0.7-1.5-1.9-0.6-1-0.5-2.6v-0.2q0-1 0.3-2.5 0.4-1.4 0.9-3 0.4-1.2 0.8-2.3l0.2-0.8q0.6-1.6 0.9-2.8l-4.9 0.7 2.3-8 0.3-0.1q0.6 0 1.7-0.1l2.4-0.2q0.4 0 0.7 0l0.2-0.6q0.3-0.6 0.5-1.2l0.3-0.9 0.8-2.5 0.2-0.6q0.2-0.4 0.3-0.7 0.8-0.3 2.2-0.5 1.3-0.2 2.8-0.4 1.2-0.2 2.3-0.3l0.8-0.1q1-0.2 1.7-0.3l-0.2 0.6q-0.1 0.4-0.3 0.7l-0.2 0.8q-0.2 0.5-0.4 1.1l-0.3 0.7q-0.1 0.4-0.3 0.7l-1.1 3.1q0.8 0 1.6-0.1l1.2-0.1h0.4q0.6-0.1 1.2-0.1h0.2q0.7-0.1 1.2-0.1-0.1 0.5-0.4 1.4-0.2 1-0.6 2zm61.8 11.6q-0.7 2-1.8 3.8-1.1 1.9-2.7 3.4-1.5 1.6-3.6 2.6-2.1 1.1-4.9 1.5-3.2 0.4-5.9-0.6-2.7-0.9-4.5-3-1.8-2-2.6-5-0.8-2.9-0.2-6.4 0.5-3.5 2.1-6.7 1.5-3.2 3.8-5.8 2.2-2.5 5.2-4.2 2.9-1.7 6.3-2.1 1.1-0.1 2.5 0 1.3 0.1 2.6 0.5 1.3 0.5 2.4 1.3 1.1 0.9 1.8 2.2 0.6 1.3 0.7 3.1 0.2 1.8-0.5 4.3l-8.3 1.2q0.4-2.2-0.3-3.3-0.7-1.1-2.2-0.9-1.5 0.2-2.9 1.1-1.4 1-2.4 2.4-1.1 1.4-1.8 3-0.7 1.7-0.9 3.4-0.3 1.6-0.2 3 0.1 1.4 0.6 2.4 0.6 1 1.6 1.5 1 0.6 2.6 0.4 1.2 0 2.2-0.4 1-0.4 1.7-0.9 0.6-0.4 1.1-0.9 0.4-0.4 0.5-0.7l-6.5 0.1 1.5-7.3 15.2-0.8q-0.4 1.8-0.9 3.8-0.5 1.9-1.3 4zm25.2-7.4q-0.2 0.9-0.5 2l-0.3 0.8q-0.2 1.1-0.6 2.2-0.3 1.2-0.7 2.3l-0.6 2q-0.9 3.1-2 6.6l-8.9 2.2q0.3-0.6 0.5-1.2 0.2-0.4 0.3-0.8l0.5-1.2q-0.9 0.4-2 0.7-1.2 0.2-2.4 0.2-1.2 0-2.3-0.3-1.2-0.3-2-0.9-0.9-0.6-1.5-1.7-0.5-1-0.5-2.4 0.1-3.5 1.8-6.1 1.7-2.7 4.3-4.1 1.3-0.7 2.5-1 1.3-0.4 2.4-0.5 1.2-0.1 2.2-0.1 1 0.1 1.7 0.2 0.1-0.4 0.1-0.7 0.1-0.4 0-0.7 0-0.3-0.2-0.5-0.1-0.3-0.6-0.5-0.9-0.5-2.4-0.4-1.5 0.1-2.9 0.5-1.6 0.4-3.3 1l3-6.9q1.1-0.4 2.3-0.6 1.1-0.2 2.5-0.3 1.3 0 3 0.3 0.9 0.2 2.1 0.6 1.2 0.5 2.3 1.4 1 0.9 1.7 2.5 0.7 1.6 0.7 4.1 0 0.4-0.2 1.2zm-13.7 7.5q-0.2 0.8 0 1.3 0.3 0.4 0.7 0.7 0.5 0.3 1.1 0.3 0.6 0.1 1.1 0l0.1-0.2q0.2-0.5 0.4-1.1v-0.2q0.3-0.9 0.6-1.7l0.2-0.5q0.2-0.5 0.3-0.9l0.3-1.1q0.1 0 0.1 0v-0.1q-1.8-0.4-3.1 0.5-1.4 0.8-1.8 3zm48-14.8q0.7 1 0.9 2.7 0.2 1.7-0.1 3.8-0.3 2.2-0.8 4.4-1.2 5.3-3.8 11.9l-8.2 0.5 0.3-0.8q1.3-3.9 2.1-7 0.4-1.4 0.8-2.9 0.3-1.4 0.4-2.5 0.2-1.1 0.1-1.7-0.1-0.7-0.5-0.8-0.9-0.1-1.5 0.6-0.6 0.6-1.2 1.7-0.6 2.1-1.4 4.3l-0.2 0.4q-0.9 2.5-1.8 5.1-1.3 0.5-3.4 0.7-2.1 0.2-4.8-0.2 1.3-3.5 2.1-6.3 0.3-1.1 0.6-2.3 0.2-1.1 0.3-2 0.1-0.9 0-1.5-0.1-0.6-0.5-0.6-0.6 0-1.2 0.5-0.5 0.4-1 1.2-0.4 0.7-0.8 1.6l-0.2 0.6q-0.2 0.5-0.4 0.9-0.5 1.6-1 2.9l-0.8 2.3q-0.1 0.2-0.1 0.3l-0.2 0.5-0.2 0.8q-0.3 0.9-0.6 1.8l-7.6 0.7 0.5-1.9q0.4-1.4 0.8-2.7 0.2-0.9 0.5-1.8l0.2-1.1 0.3-1.1q0.1-0.5 0.2-0.9l0.2-0.4q0.1-0.5 0.2-0.8 0.4-1.7 1.4-4.6l0.9-2.3q0.8-2.1 1.7-4.6 0.5-0.2 1.5-0.4l0.1-0.1q1.1-0.2 2.3-0.4 1-0.2 1.9-0.4h0.4q1-0.2 1.5-0.1l-0.8 2.8q1.1-0.7 2.4-1.1 1-0.4 2.3-0.7 1.3-0.3 2.6-0.2 0.8 0 1.3 0.4 0.6 0.4 0.9 1 0.3 0.6 0.5 1.2 0.2 0.7 0.3 1.4 0.9-0.6 2-1.3 1.2-0.7 2.3-1.2 1.2-0.6 2.3-1 1-0.4 1.8-0.4h0.1q1.4 0 2.1 1.1zm17.6 12.5l-0.9 0.1q-1.9 0.2-3.6 0.3-1.8 0.1-3.3 0.1-0.2 0.4-0.3 1.1-0.2 0.8-0.1 1.5 0.1 0.7 0.5 1.3 0.3 0.5 1.2 0.5 0.6 0 0.9-0.1 0.4-0.2 0.7-0.5 0.3-0.3 0.6-0.8l0.2-0.3q0.2-0.3 0.4-0.8l8.7 1q-0.7 1.8-1.8 3.4-1.1 1.6-2.7 2.8-1.5 1.2-3.5 1.9-2 0.8-4.5 0.8-2.3 0-3.9-0.8-1.5-0.8-2.4-2.2-0.8-1.4-1.2-3.2-0.3-1.9-0.3-3.9 0-3.3 1.1-5.9 1-2.5 2.7-5l0.2-0.3q1.2-1.8 3.2-3.3 1.9-1.5 4.2-2.2 2.2-0.8 4.5-0.5 2.3 0.2 4.2 1.8 1.1 0.9 1.6 2.6 0.6 1.6 0.7 3.5 0.2 1.9-0.1 3.7-0.3 1.8-0.9 3-1.6 0-3.4 0.2-1.3 0.1-2.7 0.2zm0.2-7.1q0-0.4-0.1-0.7-0.2-0.3-0.6-0.3-2-0.3-3.1 0.6-1.1 0.9-1.7 2.4 0.4 0.1 1.1 0.1 0.7 0 1.5 0 0.6-0.1 1.2-0.1h0.5q0.5 0 0.8 0 0.2-0.5 0.3-1.1 0.1-0.5 0.1-0.9zm24.2-0.9q-0.7-0.5-1.9-0.4-0.6 0.1-1.3 0.3-0.7 0.2-1.2 0.5-0.5 0.3-0.6 0.7-0.2 0.3 0.2 0.7 0.3 0.2 1.1 0.7 0.9 0.4 1.9 0.8 0.8 0.3 1.5 0.6l1.4 0.6q0.8 0.2 1.5 0.8 0.6 0.5 1 1.3 0.5 0.7 0.6 1.5 0.2 0.9 0.1 1.7-0.3 1.8-1.3 3.5-0.9 1.7-2.6 3.1-1.7 1.4-4.3 2.3-2.5 0.9-5.8 0.9-2 0.1-3.4-0.5-1.3-0.6-2.1-1.6-0.8-0.9-1.1-2.1-0.3-1.1-0.3-2.1 0.4-0.4 1.1-0.8l1.8-1.1q0.6-0.4 1.2-0.7l0.6-0.4q0.9-0.5 1.4-0.9l0.1 0.3q0.3 0.7 0.6 1.1 0.3 0.6 0.7 0.9 0.4 0.4 1.1 0.5 0.6 0.2 1.6 0.3 0.5 0 1-0.1 0.6-0.1 1.1-0.4 0.5-0.3 0.9-0.6 0.4-0.4 0.5-0.9 0.1-0.5-0.4-0.9-0.5-0.4-1.3-0.7-0.9-0.4-1.8-0.7l-1.9-0.6-0.4-0.1q-0.5-0.1-1-0.3-0.9-0.3-1.6-0.7-0.8-0.4-1.4-1-0.6-0.5-0.7-1.3-0.2-1.4 0.2-2.7 0.4-1.2 1.2-2.3 0.8-1 1.8-1.9 1-0.9 2.1-1.5 1-0.7 1.9-1.2l0.4-0.2q0.6-0.3 1-0.5 1.8-0.7 3.8-0.9 2-0.2 3.8 0.3 1.8 0.4 3.1 1.5 1.3 1 1.6 2.7l-6.2 3.6q-0.5-0.7-1.3-1.1z"/>
	</g>
</svg>