<svg xmlns:xlink="http://www.w3.org/1999/xlink" xmlns="http://www.w3.org/2000/svg" class="MuiSvgIcon-root MuiSvgIcon-fontSizeMedium css-cf58e1" focusable="false" aria-hidden="true" viewBox="0 0 132 47" width="132"  height="47" ><path fill-rule="evenodd" clip-rule="evenodd" d="M56.6388 11.6328C56.6388 12.362 56.8847 12.928 57.3758 13.3306C57.8666 13.734 58.3885 13.935 58.9415 13.935C59.4938 13.935 60.011 13.7766 60.4941 13.459C60.9763 13.142 61.3666 12.9832 61.6648 12.9832C62.1914 12.9832 62.8316 13.4379 63.5855 14.3466C63.9893 14.8444 64.1908 15.29 64.1908 15.6843C64.1908 16.3362 63.7083 16.9447 62.7435 17.5107C61.7438 18.1967 60.5157 18.5397 59.0601 18.5397C57.4285 18.5397 55.8584 17.9653 54.3501 16.8163C53.6306 16.2673 53.0427 15.5342 52.5868 14.6165C52.1306 13.6993 51.9028 12.6873 51.9028 11.5814C51.9028 10.4754 52.1306 9.47206 52.5868 8.57172C53.0427 7.67166 53.6306 6.94716 54.3501 6.39793C55.8054 5.2662 57.3581 4.7002 59.0071 4.7002C59.6734 4.7002 60.3228 4.79043 60.9545 4.97033C61.5858 5.15051 62.0506 5.32636 62.3494 5.49787L62.7701 5.75499C63.0858 5.96091 63.3313 6.12374 63.5071 6.24377C63.963 6.58679 64.1908 6.97666 64.1908 7.41425C64.1908 7.85155 64.0068 8.34439 63.6387 8.89304C63.0065 9.83648 62.4018 10.3079 61.8228 10.3079C61.4894 10.3079 61.016 10.1196 60.4021 9.7422C60.0861 9.45066 59.6344 9.30489 59.0468 9.30489C58.4586 9.30489 57.911 9.51053 57.4018 9.92209C56.893 10.3337 56.6388 10.904 56.6388 11.6328Z" fill="#FFFFFF"></path><path fill-rule="evenodd" clip-rule="evenodd" d="M75.3213 5.00922C75.6548 5.1119 75.9308 5.28832 76.1506 5.53647C76.3695 5.78549 76.4793 6.18404 76.4793 6.73269C76.4793 7.28135 76.3127 7.88177 75.9796 8.53339C75.6462 9.18501 75.1639 9.51067 74.5326 9.51067C74.2169 9.51067 73.914 9.44241 73.6243 9.30532C73.335 9.16794 72.9533 9.0994 72.4797 9.0994C72.0063 9.0994 71.5628 9.26252 71.151 9.58789C70.7386 9.91413 70.5327 10.3081 70.5327 10.7711V16.1735C70.5327 16.568 70.5193 16.8636 70.4933 17.0608C70.4667 17.2583 70.3832 17.4851 70.243 17.7422C69.9797 18.1882 69.296 18.4112 68.1907 18.4112C67.3487 18.4112 66.7434 18.2657 66.375 17.9739C66.0946 17.7341 65.936 17.3654 65.9011 16.8679V16.122V7.09278C65.9011 6.69857 65.9147 6.40269 65.9407 6.20544C65.9673 6.00848 66.0419 5.78983 66.1644 5.5492C66.4099 5.08644 67.0939 4.85478 68.2173 4.85478C69.2694 4.85478 69.9276 5.05203 70.1903 5.44653C70.3832 5.721 70.4797 6.00386 70.4797 6.2951C70.5679 6.17536 70.6942 6.0296 70.8616 5.85809C71.0279 5.68687 71.3832 5.4552 71.927 5.16338C72.4705 4.87213 72.9486 4.72607 73.361 4.72607C73.7734 4.72607 74.1196 4.74806 74.4009 4.79057C74.6811 4.83366 74.9882 4.90626 75.3213 5.00922Z" fill="#FFFFFF"></path><path fill-rule="evenodd" clip-rule="evenodd" d="M81.3474 11.6457C81.3474 12.2114 81.5752 12.7219 82.0317 13.176C82.4873 13.6306 83.0403 13.8574 83.6891 13.8574C84.3379 13.8574 84.8775 13.6263 85.3077 13.163C85.7375 12.7002 85.9517 12.19 85.9517 11.6327C85.9517 11.0754 85.7458 10.5565 85.3337 10.0761C84.9213 9.59657 84.3689 9.35594 83.676 9.35594C82.9829 9.35594 82.4216 9.59657 81.992 10.0761C81.5622 10.5565 81.3474 11.0797 81.3474 11.6457ZM86.1364 6.29482C86.2417 5.33489 86.9343 4.85449 88.215 4.85449C88.8993 4.85449 89.4076 4.90568 89.741 5.00894C90.0742 5.11161 90.3067 5.2918 90.4387 5.54891C90.57 5.80632 90.649 6.03394 90.6756 6.23061C90.7017 6.42786 90.7147 6.72373 90.7147 7.11823V16.1217C90.7147 16.5159 90.7017 16.8118 90.6756 17.0087C90.649 17.2063 90.5742 17.4333 90.4514 17.6904C90.2058 18.1367 89.6055 18.3594 88.6493 18.3594C87.6931 18.3594 87.0526 18.2434 86.7284 18.0123C86.4038 17.7807 86.2151 17.4423 86.1627 16.996C85.5133 17.9053 84.4299 18.3594 82.913 18.3594C81.3956 18.3594 79.9873 17.6821 78.6897 16.3273C77.3912 14.9726 76.7424 13.399 76.7424 11.607C76.7424 9.81522 77.396 8.24591 78.7027 6.89958C80.0098 5.55354 81.4435 4.87994 83.0053 4.87994C83.6015 4.87994 84.1453 4.9832 84.6367 5.18883C85.1272 5.39476 85.4698 5.58767 85.663 5.76785C85.8553 5.94775 86.0133 6.1236 86.1364 6.29482Z" fill="#FFFFFF"></path><path fill-rule="evenodd" clip-rule="evenodd" d="M99.7399 13.8837H104.24C104.941 13.8837 105.446 13.9696 105.753 14.1408C106.059 14.3123 106.266 14.5614 106.371 14.887C106.477 15.213 106.529 15.6416 106.529 16.1732C106.529 16.7048 106.477 17.1337 106.371 17.4591C106.266 17.785 106.082 18.0123 105.819 18.1411C105.555 18.2695 105.323 18.3467 105.121 18.3724C104.919 18.3979 104.617 18.4109 104.214 18.4109H94.7143C94.0998 18.4109 93.5649 18.1882 93.1092 17.7422C92.6527 17.2968 92.4252 16.7646 92.4252 16.1474C92.4252 15.5297 92.6527 15.0027 93.1092 14.5651C93.5649 14.1281 94.2669 13.4979 95.2139 12.6745C96.1616 11.8516 97.0207 11.1101 97.7929 10.4498C98.5648 9.78977 98.9855 9.42506 99.0559 9.35623H95.3456C94.3462 9.35623 93.7146 9.19369 93.4513 8.86744C93.1524 8.49059 93.0039 7.99284 93.0039 7.37564C93.0039 6.75815 93.0477 6.29944 93.1359 5.99952C93.2234 5.6996 93.3282 5.47632 93.4513 5.33055C93.574 5.18507 93.7492 5.06938 93.977 4.98349C94.2752 4.89788 94.7317 4.85449 95.3456 4.85449H103.898C104.512 4.85449 105.047 5.06938 105.503 5.49801C105.959 5.92664 106.187 6.46257 106.187 7.10551C106.187 7.74845 105.924 8.31879 105.397 8.81625C104.871 9.31371 102.985 11.0025 99.7399 13.8837Z" fill="#FFFFFF"></path><path fill-rule="evenodd" clip-rule="evenodd" d="M114.397 18.3595C112.625 18.3595 111.156 17.7032 109.989 16.3916C108.823 15.0797 108.239 13.4809 108.239 11.594V7.09255C108.239 6.68099 108.252 6.38107 108.278 6.19249C108.305 6.00363 108.38 5.78093 108.502 5.52352C108.748 5.06077 109.432 4.8291 110.555 4.8291C111.782 4.8291 112.502 5.15505 112.713 5.80638C112.817 6.08085 112.871 6.51816 112.871 7.11829V11.6197C112.871 12.3231 113.076 12.8718 113.489 13.2663C113.901 13.6611 114.453 13.8577 115.147 13.8577C115.84 13.8577 116.4 13.6521 116.831 13.2405C117.26 12.829 117.475 12.2887 117.475 11.6197V7.06681C117.475 6.6726 117.489 6.37673 117.515 6.17948C117.541 5.98252 117.624 5.7549 117.765 5.49778C117.993 5.0518 118.668 4.8291 119.791 4.8291C120.896 4.8291 121.571 5.06077 121.817 5.52352C121.94 5.78093 122.014 6.00826 122.041 6.20522C122.067 6.40247 122.08 6.69834 122.08 7.09255V16.1987C122.08 16.4552 122.074 16.6701 122.062 16.8434C122.056 16.9249 122.08 20.8806 122.041 21.4472C122.027 21.6456 121.931 21.8631 121.79 22.1029C121.527 22.5491 120.852 22.7721 119.765 22.7721C118.695 22.7721 118.037 22.5659 117.791 22.1544C117.65 21.9212 117.566 21.6494 117.538 21.339C117.531 21.2615 117.528 16.7954 117.528 16.7132C117.458 16.8333 117.3 17.0048 117.054 17.2277C116.808 17.4507 116.572 17.639 116.344 17.7938C115.747 18.1712 115.098 18.3595 114.397 18.3595Z" fill="#FFFFFF"></path><path fill-rule="evenodd" clip-rule="evenodd" d="M56.4022 30.3922C56.4022 30.9495 56.6259 31.451 57.0735 31.897C57.5205 32.343 58.0637 32.566 58.7048 32.566C59.3448 32.566 59.8755 32.3383 60.2962 31.884C60.7178 31.4299 60.9285 30.9324 60.9285 30.3922C60.9285 29.8519 60.7261 29.3463 60.3229 28.8743C59.9193 28.4029 59.3758 28.1669 58.6912 28.1669C58.0075 28.1669 57.4546 28.3983 57.0339 28.8613C56.6132 29.3249 56.4022 29.8351 56.4022 30.3922ZM61.0859 35.6525C60.419 36.5101 59.3578 36.9387 57.9022 36.9387C56.4457 36.9387 55.0818 36.2828 53.8099 34.9708C52.5381 33.6589 51.9029 32.1287 51.9029 30.3792C51.9029 28.6299 52.5428 27.0956 53.8235 25.7747C55.1037 24.4545 56.5072 23.7942 58.0335 23.7942C58.6297 23.7942 59.1735 23.9015 59.6649 24.1158C60.156 24.3301 60.4942 24.5273 60.6782 24.7072C60.8622 24.8871 61.0066 25.0546 61.1125 25.2087C61.1652 24.7289 61.3444 24.3642 61.6518 24.1158C61.9583 23.867 62.4542 23.7427 63.1385 23.7427C63.8228 23.7427 64.3225 23.7942 64.6382 23.8968C64.9539 23.9998 65.1775 24.1759 65.3092 24.4241C65.4408 24.6731 65.5198 24.8915 65.5465 25.08C65.5725 25.2692 65.5855 25.5604 65.5855 25.9546V36.6044C65.5855 38.5763 64.884 40.1673 63.4805 41.3762C62.0773 42.5852 60.498 43.1897 58.7439 43.1897C57.4111 43.1897 56.1389 42.8721 54.9289 42.2378C53.7182 41.6033 53.1132 41.0286 53.1132 40.5144C53.1132 39.8457 53.3762 39.2542 53.9028 38.7394C54.2354 38.379 54.4945 38.1306 54.6789 37.9935C54.8629 37.8561 55.0774 37.7876 55.3235 37.7876C55.5688 37.7876 55.8235 37.8905 56.0868 38.0962C56.9285 38.7304 57.8401 39.048 58.8229 39.048C59.4894 39.048 60.0329 38.7909 60.4545 38.2766C60.8752 37.7618 61.0859 37.1446 61.0859 36.4242V35.6525Z" fill="#FFFFFF"></path><path fill-rule="evenodd" clip-rule="evenodd" d="M71.9009 30.5854C71.9009 31.1514 72.1287 31.6618 72.5855 32.1159C73.0411 32.5703 73.5938 32.7973 74.2432 32.7973C74.892 32.7973 75.4316 32.5662 75.8612 32.1029C76.2911 31.6399 76.5059 31.13 76.5059 30.5723C76.5059 30.0153 76.2994 29.4962 75.8878 29.016C75.4754 28.5362 74.9225 28.2959 74.2302 28.2959C73.5364 28.2959 72.9752 28.5362 72.5462 29.016C72.1157 29.4962 71.9009 30.0196 71.9009 30.5854ZM76.6902 25.2348C76.7952 24.2748 77.4884 23.7944 78.7692 23.7944C79.4529 23.7944 79.9617 23.8456 80.2952 23.9486C80.6283 24.0516 80.8608 24.2314 80.9925 24.4889C81.1242 24.7463 81.2026 24.9736 81.2292 25.1703C81.2558 25.3678 81.2688 25.6637 81.2688 26.0579V35.0614C81.2688 35.4559 81.2558 35.7517 81.2292 35.9487C81.2026 36.1459 81.128 36.3733 81.0055 36.6304C80.76 37.0764 80.1591 37.2994 79.2029 37.2994C78.2467 37.2994 77.6068 37.1831 77.2819 36.952C76.9574 36.7203 76.7692 36.3819 76.7162 35.936C76.0674 36.845 74.984 37.2994 73.4666 37.2994C71.9491 37.2994 70.5415 36.6217 69.2433 35.267C67.9448 33.9123 67.2966 32.3386 67.2966 30.5466C67.2966 28.7549 67.9495 27.1858 69.2566 25.8392C70.5634 24.4935 71.9977 23.8199 73.5589 23.8199C74.155 23.8199 74.6988 23.9228 75.1902 24.1285C75.681 24.3347 76.0233 24.5276 76.2165 24.7075C76.4094 24.8874 76.5671 25.0635 76.6902 25.2348Z" fill="#FFFFFF"></path><path fill-rule="evenodd" clip-rule="evenodd" d="M87.8991 25.5947C88.7231 24.3774 89.7151 23.7686 90.8727 23.7686C92.6621 23.7686 93.9949 24.5145 94.8724 26.0066C95.065 25.7491 95.2972 25.4793 95.5694 25.1962C95.8416 24.9133 96.2753 24.6041 96.872 24.2701C97.4682 23.9357 98.0824 23.7686 98.714 23.7686C100.117 23.7686 101.293 24.2958 102.24 25.3503C103.187 26.4051 103.66 28.1503 103.66 30.5852V35.0867C103.66 35.4817 103.647 35.7773 103.621 35.9743C103.595 36.1715 103.512 36.3986 103.371 36.656C103.143 37.119 102.468 37.3504 101.345 37.3504C100.24 37.3504 99.5646 37.1104 99.3194 36.6302C99.1963 36.3731 99.1217 36.1455 99.0957 35.9486C99.0691 35.7516 99.056 35.4557 99.056 35.0609V30.5592C99.056 29.0677 98.5123 28.3215 97.4244 28.3215C96.8099 28.3215 96.3939 28.5187 96.1747 28.9132C95.9549 29.3077 95.846 29.8648 95.846 30.5852V35.0867C95.846 35.4982 95.8324 35.7984 95.8067 35.987C95.7801 36.1762 95.6963 36.3986 95.5564 36.656C95.3105 37.119 94.6259 37.3504 93.5038 37.3504C92.3987 37.3504 91.7233 37.1104 91.4778 36.6302C91.355 36.3731 91.2804 36.1455 91.2541 35.9486C91.2281 35.7516 91.2144 35.4557 91.2144 35.0609V30.5592C91.2144 29.0677 90.6704 28.3215 89.5831 28.3215C88.5308 28.3215 88.0041 29.0677 88.0041 30.5592V35.1124C88.0041 35.5072 87.9914 35.8028 87.9648 36C87.9388 36.1973 87.8553 36.4243 87.7151 36.6814C87.4518 37.1277 86.7675 37.3504 85.6622 37.3504C84.5574 37.3504 83.8814 37.119 83.6364 36.656C83.5134 36.3986 83.4388 36.1762 83.4128 35.987C83.3862 35.7984 83.3731 35.4982 83.3731 35.0867V26.032C83.3731 25.6378 83.3862 25.3419 83.4128 25.1444C83.4388 24.9477 83.5217 24.7291 83.6625 24.4887C83.9255 24.0257 84.5486 23.794 85.5305 23.794C86.513 23.794 87.1533 23.9485 87.4518 24.2571C87.7494 24.5659 87.8991 25.0119 87.8991 25.5947Z" fill="#FFFFFF"></path><path fill-rule="evenodd" clip-rule="evenodd" d="M120.949 36.1412C120.615 35.9356 120.449 35.6099 120.449 35.1636C120.449 34.7179 120.782 34.0406 121.448 33.1316C121.641 32.84 121.953 32.6943 122.383 32.6943C122.813 32.6943 123.396 32.9045 124.132 33.3248C124.869 33.745 125.536 33.9547 126.132 33.9547C127.202 33.9547 127.738 33.749 127.738 33.3375C127.738 33.0118 127.149 32.7715 125.974 32.617C124.869 32.4626 123.773 32.06 122.685 31.4081C122.176 31.0992 121.755 30.6153 121.422 29.9547C121.089 29.2947 120.922 28.5101 120.922 27.6011C120.922 24.8916 122.825 23.5366 126.632 23.5366C127.878 23.5366 129.159 23.8284 130.474 24.4109C131.088 24.686 131.395 25.0287 131.395 25.4403C131.395 25.8518 131.202 26.358 130.816 26.9581C130.43 27.5583 130.035 27.8582 129.632 27.8582C129.421 27.8582 129.031 27.7295 128.461 27.4721C127.891 27.2152 127.272 27.0865 126.606 27.0865C125.571 27.0865 125.053 27.2754 125.053 27.6525C125.053 28.1668 125.65 28.5014 126.843 28.6556C128 28.7759 129.123 29.1018 130.211 29.6331C130.72 29.8735 131.145 30.2891 131.487 30.8808C131.829 31.472 132 32.2144 132 33.1061C132 33.9978 131.829 34.7564 131.487 35.3823C131.145 36.0087 130.667 36.4755 130.053 36.7844C128.93 37.316 127.523 37.5818 125.83 37.5818C124.137 37.5818 122.51 37.1017 120.949 36.1412Z" fill="#FFFFFF"></path><path fill-rule="evenodd" clip-rule="evenodd" d="M113.581 29.7102C114.248 29.7102 114.581 29.436 114.581 28.8868C114.581 28.4929 114.427 28.1756 114.12 27.9353C113.814 27.6952 113.375 27.5752 112.805 27.5752C112.235 27.5752 111.669 27.8025 111.108 28.2569C110.546 28.7115 110.266 29.196 110.266 29.7102H113.581ZM119.133 28.9513C119.133 30.0061 118.866 30.787 118.331 31.2923C117.795 31.7984 117.203 32.0512 116.555 32.0512H110.319C110.319 32.5316 110.608 32.9345 111.186 33.2601C111.765 33.5861 112.344 33.7489 112.923 33.7489C113.941 33.7489 114.739 33.6459 115.318 33.44L115.608 33.3373C116.028 33.1488 116.379 33.0545 116.66 33.0545C117.221 33.0545 117.703 33.44 118.107 34.2119C118.334 34.675 118.449 35.0698 118.449 35.3952C118.449 36.922 116.581 37.6843 112.845 37.6843C111.546 37.6843 110.393 37.4657 109.384 37.0287C108.375 36.5914 107.591 36.0124 107.029 35.2922C105.924 33.9031 105.372 32.3514 105.372 30.6363C105.372 28.4755 106.086 26.7483 107.516 25.4529C108.946 24.1586 110.73 23.5107 112.871 23.5107C115.309 23.5107 117.098 24.3515 118.239 26.0316C118.835 26.9236 119.133 27.8968 119.133 28.9513Z" fill="#FFFFFF"></path><path fill-rule="evenodd" clip-rule="evenodd" d="M37.5471 1.64493C37.3041 1.37299 36.9901 1.25692 36.6323 1.25692L36.6289 1.27018C35.2989 1.27018 33.3377 2.86868 31.9638 4.16871C29.0709 2.78246 25.5164 2.1026 21.1989 2.1026C16.8815 2.1026 13.327 2.78246 10.4374 4.1654C9.06356 2.86537 7.10232 1.26686 5.77569 1.26686C5.4145 1.26686 5.10395 1.38294 4.8609 1.65488C2.79502 3.98299 2.59923 9.55786 2.6735 12.7681C1.74182 15.2753 1.26923 18.207 1.26923 21.5566C1.26923 28.594 3.32162 33.8074 7.36224 37.0674C10.0864 39.2595 13.6409 40.5231 18.171 40.9011C17.9814 40.9937 17.7891 41.0858 17.5946 41.1791C17.2455 41.3464 16.8891 41.5172 16.5271 41.7004L14.8865 42.4897L13.9548 42.9374C13.6963 43.0696 13.4358 43.1978 13.1723 43.3275C12.5105 43.6531 11.8296 43.9881 11.1126 44.4198L10.8661 44.5459C10.7953 44.5956 10.7311 44.6785 10.7176 44.7747C10.6839 44.9538 10.8088 45.1229 10.991 45.1494C11.2763 45.1908 11.5606 45.2367 11.8448 45.2826C12.472 45.3838 13.0989 45.485 13.7354 45.5375L14.4274 45.6137C14.657 45.637 14.8831 45.6569 15.1194 45.6701L16.5068 45.7464C16.7229 45.753 16.9389 45.753 17.1549 45.753C18.7989 45.753 20.4496 45.6436 22.0834 45.3915C23.9332 45.1163 25.7527 44.6089 27.4979 43.9025C29.2397 43.1961 30.9005 42.2741 32.406 41.1565C35.3901 38.8781 37.7361 35.8138 39.1303 32.4012C39.64 31.1642 40.0248 29.8808 40.2949 28.5774C40.8485 26.4848 41.1287 24.1434 41.1287 21.55C41.1287 18.2103 40.6594 15.2853 39.7311 12.7781C39.8088 9.57113 39.6164 3.97636 37.5471 1.64493ZM31.7208 2.66307C33.7327 0.872213 35.3462 0 36.6323 0C37.3851 0 38.0332 0.281894 38.5159 0.822467C40.7168 3.29982 41.0983 8.53309 41.0206 12.5758C41.9455 15.1725 42.4148 18.1904 42.4148 21.55C42.4148 24.213 42.1245 26.6738 41.5472 28.8593C41.2502 30.2655 40.8383 31.6152 40.3219 32.8655C38.8298 36.5169 36.3656 39.7238 33.1824 42.1514C31.6094 43.3188 29.8642 44.2971 27.9907 45.0566C26.1172 45.8127 24.1965 46.34 22.2893 46.6219C20.6723 46.874 18.9474 47 17.1617 47C16.9389 47 16.7127 47 16.4899 46.9934H16.4393L15.0519 46.9171C14.7954 46.9038 14.5456 46.8839 14.289 46.8541L13.6139 46.7811C12.9641 46.7279 12.3353 46.6275 11.7247 46.5299C11.6883 46.5241 11.6519 46.5183 11.6155 46.5125L11.6155 46.5125C11.3454 46.4694 11.0754 46.4263 10.8155 46.3865C10.3868 46.3268 9.99523 46.0946 9.74206 45.7497C9.49226 45.4114 9.39099 44.9836 9.45851 44.5724C9.52602 44.1578 9.76569 43.7765 10.1235 43.5211L10.1978 43.468L10.2788 43.4249L10.4881 43.3188C11.2341 42.8711 11.9226 42.5328 12.591 42.2045L12.5911 42.2045C12.635 42.1829 12.6789 42.1614 12.7227 42.1399C12.9411 42.0329 13.1571 41.927 13.3709 41.8165L13.3844 41.8098L13.3979 41.8032L13.992 41.518C11.0653 40.8348 8.61122 39.6807 6.55884 38.0291C2.20766 34.5138 0 28.9687 0 21.5466C0 18.1772 0.472586 15.1526 1.40088 12.5526C1.32324 8.51651 1.70807 3.2965 3.9056 0.81915C4.38156 0.281894 5.03306 0 5.78245 0C7.06856 0 8.68211 0.872213 10.6906 2.65975C13.6072 1.43268 17.0537 0.832416 21.2023 0.832416C25.351 0.832416 28.8042 1.43268 31.7208 2.66307ZM21.2057 9.12673C25.4489 9.12673 28.4768 9.9094 30.4515 11.5046C32.7841 13.3949 33.9251 16.6815 33.9251 21.55C33.9251 31.864 28.8414 33.9732 21.2057 33.9732C13.57 33.9732 8.48633 31.8606 8.48633 21.55C8.48633 16.6848 9.62053 13.3916 11.9598 11.5046C13.9346 9.90277 16.9625 9.12673 21.2057 9.12673ZM16.8309 26.6075C18.2925 26.6075 19.4875 25.4434 19.4875 24.0174V20.9696C19.4166 20.9762 19.3423 20.9795 19.2681 20.9795C18.0934 20.9795 17.1448 20.0543 17.1448 18.9101C17.1448 17.9815 17.7693 17.1955 18.6301 16.9335C18.1575 16.5057 17.5263 16.2404 16.8309 16.2404C15.3692 16.2404 14.1743 17.4045 14.1743 18.8305V24.0174C14.1743 25.4401 15.3692 26.6075 16.8309 26.6075ZM25.5771 26.6075C27.0388 26.6075 28.2337 25.4434 28.2337 24.0174V20.7673C28.1291 20.7839 28.0245 20.7938 27.9164 20.7938C26.7417 20.7938 25.7932 19.8685 25.7932 18.7244C25.7932 17.829 26.3771 17.0695 27.1907 16.781C26.7417 16.4427 26.1847 16.2404 25.5771 16.2404C24.1155 16.2404 22.9205 17.4045 22.9205 18.8305V24.0174C22.9205 25.4401 24.1155 26.6075 25.5771 26.6075Z" fill="#FFFFFF"></path></svg>